<svg width="19" height="19" viewBox="0 0 19 19" fill="none" xmlns="http://www.w3.org/2000/svg">
<path fill-rule="evenodd" clip-rule="evenodd" d="M12.7508 2.56262H6.24906C3.98331 2.56262 2.56281 4.16687 2.56281 6.43712V12.5631C2.56281 14.8334 3.97656 16.4376 6.24906 16.4376H12.7501C15.0233 16.4376 16.4378 14.8334 16.4378 12.5631V6.43712C16.4378 4.16687 15.0233 2.56262 12.7508 2.56262Z" stroke="white" stroke-width="1.5" stroke-linecap="round" stroke-linejoin="round"/>
<path fill-rule="evenodd" clip-rule="evenodd" d="M8.51922 9.50015C8.51922 10.2666 7.89747 10.8891 7.13022 10.8891C6.36372 10.8891 5.74197 10.2666 5.74197 9.50015C5.74197 8.73365 6.36372 8.11115 7.13022 8.11115C7.89747 8.11115 8.51922 8.73365 8.51922 9.50015Z" stroke="white" stroke-width="1.5" stroke-linecap="round" stroke-linejoin="round"/>
<path d="M8.51923 9.50012H13.2577V10.8891" stroke="white" stroke-width="1.5" stroke-linecap="round" stroke-linejoin="round"/>
<path d="M11.1362 10.8888V9.49976" stroke="white" stroke-width="1.5" stroke-linecap="round" stroke-linejoin="round"/>
</svg>
