<svg width="70" height="68" viewBox="0 0 70 68" fill="none" xmlns="http://www.w3.org/2000/svg">
<g filter="url(#filter0_d_5_12)">
<rect x="4" y="31" width="30" height="29" rx="14.5" fill="#17181A"/>
<path d="M16.72 41.5V39.836H20.048V51.5H18.208V41.5H16.72Z" fill="white"/>
<rect x="36" y="31" width="30" height="29" rx="14.5" fill="#17181A"/>
<path d="M47.968 49.02C48.992 48.1347 49.7973 47.4093 50.384 46.844C50.9813 46.268 51.4773 45.6707 51.872 45.052C52.2667 44.4333 52.464 43.8147 52.464 43.196C52.464 42.556 52.3093 42.0547 52 41.692C51.7013 41.3293 51.2267 41.148 50.576 41.148C49.9467 41.148 49.456 41.3507 49.104 41.756C48.7627 42.1507 48.5813 42.684 48.56 43.356H46.8C46.832 42.14 47.1947 41.212 47.888 40.572C48.592 39.9213 49.4827 39.596 50.56 39.596C51.7227 39.596 52.6293 39.916 53.28 40.556C53.9413 41.196 54.272 42.0493 54.272 43.116C54.272 43.884 54.0747 44.6253 53.68 45.34C53.296 46.044 52.832 46.6787 52.288 47.244C51.7547 47.7987 51.072 48.444 50.24 49.18L49.52 49.82H54.592V51.34H46.816V50.012L47.968 49.02Z" fill="white"/>
<rect x="4" width="30" height="29" rx="14.5" fill="#17181A"/>
<path d="M14.236 18.068V16.692L19.612 8.98H21.82V16.484H23.308V18.068H21.82V20.5H20.028V18.068H14.236ZM20.108 10.836L16.332 16.484H20.108V10.836Z" fill="white"/>
<rect x="36" width="30" height="29" rx="14.5" fill="#17181A"/>
<path d="M53.98 10.404H48.62V13.588C48.844 13.2893 49.1747 13.0387 49.612 12.836C50.06 12.6333 50.5347 12.532 51.036 12.532C51.932 12.532 52.6573 12.724 53.212 13.108C53.7773 13.492 54.1773 13.9773 54.412 14.564C54.6573 15.1507 54.78 15.7693 54.78 16.42C54.78 17.2093 54.6253 17.9133 54.316 18.532C54.0173 19.14 53.564 19.62 52.956 19.972C52.3587 20.324 51.6227 20.5 50.748 20.5C49.5853 20.5 48.652 20.212 47.948 19.636C47.244 19.06 46.8227 18.2973 46.684 17.348H48.46C48.5773 17.8493 48.8387 18.2493 49.244 18.548C49.6493 18.836 50.156 18.98 50.764 18.98C51.5213 18.98 52.0867 18.7507 52.46 18.292C52.844 17.8333 53.036 17.2253 53.036 16.468C53.036 15.7 52.844 15.1133 52.46 14.708C52.076 14.292 51.5107 14.084 50.764 14.084C50.2413 14.084 49.7987 14.2173 49.436 14.484C49.084 14.74 48.828 15.092 48.668 15.54H46.94V8.804H53.98V10.404Z" fill="white"/>
</g>
<defs>
<filter id="filter0_d_5_12" x="0" y="0" width="70" height="68" filterUnits="userSpaceOnUse" color-interpolation-filters="sRGB">
<feFlood flood-opacity="0" result="BackgroundImageFix"/>
<feColorMatrix in="SourceAlpha" type="matrix" values="0 0 0 0 0 0 0 0 0 0 0 0 0 0 0 0 0 0 127 0" result="hardAlpha"/>
<feOffset dy="4"/>
<feGaussianBlur stdDeviation="2"/>
<feComposite in2="hardAlpha" operator="out"/>
<feColorMatrix type="matrix" values="0 0 0 0 0 0 0 0 0 0 0 0 0 0 0 0 0 0 0.25 0"/>
<feBlend mode="normal" in2="BackgroundImageFix" result="effect1_dropShadow_5_12"/>
<feBlend mode="normal" in="SourceGraphic" in2="effect1_dropShadow_5_12" result="shape"/>
</filter>
</defs>
</svg>
